<svg xmlns="http://www.w3.org/2000/svg">
  <symbol id="arrow-right" viewBox="0 0 24 24"><path d="M5 12h13M13 6l6 6-6 6"/></symbol>
  <symbol id="home" viewBox="0 0 24 24"><path d="M4 11l8-7 8 7v9h-6v-6h-4v6H4z"/></symbol>
  <symbol id="users" viewBox="0 0 24 24"><path d="M8 11a4 4 0 1 0 0-8 4 4 0 0 0 0 8zm8-1a3 3 0 1 0 0-6M2 21v-3c0-3 2-5 6-5s6 2 6 5v3m2-8c4 0 6 2 6 5v3h-5"/></symbol>
  <symbol id="ticket" viewBox="0 0 24 24"><path d="M3 6h18v5a2 2 0 0 0 0 4v5H3v-5a2 2 0 0 0 0-4zm9 0v14"/></symbol>
  <symbol id="shield" viewBox="0 0 24 24"><path d="M12 3l8 3v6c0 5-3 8-8 10-5-2-8-5-8-10V6z"/></symbol>
  <symbol id="building" viewBox="0 0 24 24"><path d="M4 21V5h11v16M8 9h3m-3 4h3m-3 4h3m4-7h5v11M2 21h20"/></symbol>
  <symbol id="menu" viewBox="0 0 24 24"><path d="M4 6h16M4 12h16M4 18h16"/></symbol>
  <symbol id="check" viewBox="0 0 24 24"><path d="M4 12l5 5L20 6"/></symbol>
</svg>
